<svg width="170" height="47" viewBox="0 0 170 47" fill="none" xmlns="http://www.w3.org/2000/svg">
<path d="M79.3227 37.264C79.3227 38.6403 79.0051 39.7472 78.37 40.5852C77.7346 41.4175 76.8821 41.8337 75.8123 41.8337C74.6699 41.8337 73.7867 41.4314 73.1626 40.6267L73.0874 41.6672H71.6665V28.8823H73.2128V33.6517C73.8369 32.8804 74.6979 32.4947 75.7955 32.4947C76.8933 32.4947 77.7542 32.9082 78.3782 33.7349C79.008 34.5617 79.3227 35.6938 79.3227 37.1309V37.264ZM77.7765 37.0892C77.7765 36.0405 77.573 35.2304 77.1663 34.6588C76.7595 34.0873 76.1744 33.8016 75.4111 33.8016C74.3914 33.8016 73.6586 34.2731 73.2128 35.2165V39.1119C73.6865 40.0553 74.4247 40.5268 75.4278 40.5268C76.1689 40.5268 76.7456 40.2411 77.1579 39.6696C77.5703 39.098 77.7765 38.238 77.7765 37.0892ZM84.1371 39.4116L86.2434 32.6612H87.8983L84.2624 43.0572C83.6998 44.5554 82.8054 45.3045 81.5794 45.3045L81.287 45.2796L80.7103 45.1714V43.9229L81.1282 43.9561C81.6519 43.9561 82.0586 43.8507 82.3484 43.6398C82.6437 43.429 82.8862 43.0433 83.0757 42.4829L83.4184 41.5673L80.192 32.6612H81.8804L84.1371 39.4116ZM93.5987 41.6672V29.5482H97.1928C98.2682 29.5482 99.2211 29.7869 100.051 30.2641C100.887 30.7413 101.534 31.4182 101.991 32.295C102.447 33.1717 102.676 34.1761 102.676 35.3081V35.9156C102.676 37.0644 102.445 38.0742 101.982 38.9454C101.525 39.8166 100.87 40.4881 100.018 40.9597C99.171 41.4314 98.1985 41.6672 97.1009 41.6672H93.5987ZM95.7133 31.2462V39.9859H97.0925C98.2014 39.9859 99.0511 39.6418 99.6418 38.9537C100.238 38.2602 100.542 37.2669 100.553 35.974V35.2998C100.553 33.9846 100.266 32.9803 99.6919 32.2867C99.1181 31.593 98.2849 31.2462 97.1928 31.2462H95.7133ZM104.205 37.081C104.205 36.1987 104.381 35.4052 104.732 34.7005C105.083 33.9902 105.576 33.4465 106.211 33.069C106.847 32.6862 107.577 32.4947 108.401 32.4947C109.622 32.4947 110.611 32.886 111.368 33.6683C112.132 34.4508 112.544 35.4884 112.606 36.7813L112.614 37.2557C112.614 38.1436 112.441 38.937 112.096 39.6363C111.756 40.3355 111.265 40.8764 110.625 41.2594C109.989 41.6422 109.254 41.8337 108.418 41.8337C107.142 41.8337 106.12 41.4119 105.351 40.5685C104.587 39.7195 104.205 38.5903 104.205 37.1808V37.081ZM106.236 37.2557C106.236 38.1824 106.429 38.9093 106.813 39.4365C107.198 39.958 107.733 40.2189 108.418 40.2189C109.103 40.2189 109.636 39.9525 110.014 39.4199C110.399 38.8872 110.591 38.1075 110.591 37.081C110.591 36.171 110.393 35.4496 109.998 34.9168C109.608 34.3842 109.076 34.1178 108.401 34.1178C107.738 34.1178 107.212 34.3814 106.822 34.9085C106.432 35.4302 106.236 36.2125 106.236 37.2557ZM118.047 40.2189C118.554 40.2189 118.975 40.0718 119.309 39.7777C119.643 39.4836 119.821 39.1202 119.844 38.6873H121.758C121.736 39.2478 121.56 39.7722 121.231 40.2606C120.902 40.7433 120.457 41.1261 119.894 41.4092C119.331 41.6921 118.724 41.8337 118.072 41.8337C116.807 41.8337 115.804 41.4259 115.063 40.6101C114.322 39.7944 113.951 38.668 113.951 37.2308V37.0227C113.951 35.6521 114.319 34.5562 115.054 33.7349C115.79 32.9082 116.793 32.4947 118.064 32.4947C119.139 32.4947 120.014 32.8083 120.688 33.4353C121.368 34.0568 121.724 34.8753 121.758 35.8908H119.844C119.821 35.3747 119.643 34.9502 119.309 34.6172C118.98 34.2843 118.559 34.1178 118.047 34.1178C117.389 34.1178 116.882 34.3564 116.526 34.8336C116.169 35.3053 115.988 36.0239 115.982 36.9895V37.3141C115.982 38.2907 116.158 39.0203 116.509 39.5031C116.865 39.9804 117.378 40.2189 118.047 40.2189ZM125.837 30.4721V32.6612H127.433V34.1594H125.837V39.1868C125.837 39.5308 125.904 39.7805 126.037 39.9359C126.177 40.0858 126.422 40.1607 126.773 40.1607C127.007 40.1607 127.244 40.1328 127.483 40.0774V41.6422C127.021 41.7698 126.575 41.8337 126.146 41.8337C124.586 41.8337 123.806 40.9763 123.806 39.2616V34.1594H122.318V32.6612H123.806V30.4721H125.837ZM128.361 37.081C128.361 36.1987 128.536 35.4052 128.887 34.7005C129.239 33.9902 129.732 33.4465 130.367 33.069C131.002 32.6862 131.732 32.4947 132.557 32.4947C133.777 32.4947 134.766 32.886 135.524 33.6683C136.288 34.4508 136.7 35.4884 136.76 36.7813L136.77 37.2557C136.77 38.1436 136.597 38.937 136.251 39.6363C135.911 40.3355 135.421 40.8764 134.78 41.2594C134.145 41.6422 133.409 41.8337 132.573 41.8337C131.297 41.8337 130.275 41.4119 129.506 40.5685C128.743 39.7195 128.361 38.5903 128.361 37.1808V37.081ZM130.392 37.2557C130.392 38.1824 130.584 38.9093 130.969 39.4365C131.353 39.958 131.888 40.2189 132.573 40.2189C133.259 40.2189 133.791 39.9525 134.17 39.4199C134.554 38.8872 134.747 38.1075 134.747 37.081C134.747 36.171 134.549 35.4496 134.153 34.9168C133.763 34.3842 133.231 34.1178 132.557 34.1178C131.894 34.1178 131.367 34.3814 130.977 34.9085C130.587 35.4302 130.392 36.2125 130.392 37.2557ZM143.222 34.509C142.954 34.4646 142.679 34.4424 142.395 34.4424C141.463 34.4424 140.837 34.7976 140.514 35.5078V41.6672H138.483V32.6612H140.422L140.472 33.6683C140.962 32.886 141.642 32.4947 142.511 32.4947C142.802 32.4947 143.041 32.5336 143.231 32.6113L143.222 34.509ZM149.658 41.6672C149.569 41.4951 149.491 41.2149 149.423 40.8265C148.778 41.4979 147.987 41.8337 147.05 41.8337C146.142 41.8337 145.401 41.5756 144.827 41.0596C144.253 40.5435 143.965 39.9053 143.965 39.1452C143.965 38.1853 144.322 37.45 145.036 36.9394C145.755 36.4234 146.779 36.1653 148.112 36.1653H149.357V35.5745C149.357 35.1083 149.226 34.7365 148.964 34.4591C148.702 34.1761 148.304 34.0346 147.769 34.0346C147.306 34.0346 146.928 34.1511 146.632 34.3842C146.337 34.6117 146.189 34.903 146.189 35.2581H144.159C144.159 34.7643 144.322 34.3037 144.651 33.8765C144.98 33.4436 145.425 33.1052 145.988 32.861C146.557 32.6168 147.19 32.4947 147.885 32.4947C148.944 32.4947 149.789 32.7611 150.418 33.2938C151.048 33.8209 151.372 34.5645 151.388 35.5245V39.5864C151.388 40.3965 151.503 41.0429 151.731 41.5256V41.6672H149.658ZM147.426 40.2106C147.827 40.2106 148.204 40.1135 148.555 39.9193C148.912 39.725 149.179 39.4643 149.357 39.1369V37.4388H148.262C147.51 37.4388 146.944 37.5693 146.565 37.8301C146.187 38.0909 145.996 38.4598 145.996 38.9371C145.996 39.3255 146.125 39.6363 146.381 39.8693C146.643 40.0968 146.991 40.2106 147.426 40.2106ZM155.676 41.6672H153.644V28.8823H155.676V41.6672ZM160.055 41.6672H158.025V32.6612H160.055V41.6672ZM157.899 30.3223C157.899 30.0116 157.996 29.7535 158.192 29.5482C158.392 29.343 158.677 29.2403 159.044 29.2403C159.411 29.2403 159.696 29.343 159.897 29.5482C160.097 29.7535 160.197 30.0116 160.197 30.3223C160.197 30.6275 160.097 30.8828 159.897 31.0881C159.696 31.2879 159.411 31.3877 159.044 31.3877C158.677 31.3877 158.392 31.2879 158.192 31.0881C157.996 30.8828 157.899 30.6275 157.899 30.3223ZM167.678 41.6672C167.589 41.4951 167.512 41.2149 167.444 40.8265C166.797 41.4979 166.006 41.8337 165.07 41.8337C164.163 41.8337 163.422 41.5756 162.848 41.0596C162.274 40.5435 161.986 39.9053 161.986 39.1452C161.986 38.1853 162.343 37.45 163.056 36.9394C163.775 36.4234 164.8 36.1653 166.132 36.1653H167.378V35.5745C167.378 35.1083 167.247 34.7365 166.985 34.4591C166.723 34.1761 166.325 34.0346 165.79 34.0346C165.327 34.0346 164.947 34.1511 164.653 34.3842C164.357 34.6117 164.21 34.903 164.21 35.2581H162.178C162.178 34.7643 162.343 34.3037 162.672 33.8765C163 33.4436 163.446 33.1052 164.009 32.861C164.577 32.6168 165.209 32.4947 165.906 32.4947C166.965 32.4947 167.809 32.7611 168.439 33.2938C169.069 33.8209 169.391 34.5645 169.409 35.5245V39.5864C169.409 40.3965 169.522 41.0429 169.752 41.5256V41.6672H167.678ZM165.447 40.2106C165.848 40.2106 166.223 40.1135 166.575 39.9193C166.931 39.725 167.2 39.4643 167.378 39.1369V37.4388H166.283C165.531 37.4388 164.965 37.5693 164.586 37.8301C164.208 38.0909 164.017 38.4598 164.017 38.9371C164.017 39.3255 164.145 39.6363 164.402 39.8693C164.664 40.0968 165.012 40.2106 165.447 40.2106Z" fill="#627282"/>
<path d="M159.418 0.134277C165.656 0.134277 169.843 5.00403 169.843 10.6608C169.843 16.3176 165.597 21.2454 159.361 21.2454C153.123 21.2454 148.936 16.3764 148.936 10.719C148.936 5.06235 153.182 0.134277 159.418 0.134277ZM137.955 0.484793C142.583 0.484793 145.627 2.93329 145.627 6.98689C145.627 11.4188 141.938 13.6929 137.576 13.6929H132.598V20.8955H130.285V0.484793H137.955ZM80.9179 0.484473V2.61278H74.0362V20.8953H71.6937V2.61278H64.813V0.484473H80.9179ZM100.067 0.484793V2.58342H87.5641V9.55276H98.7491V11.6528H87.5641V18.7965H100.213V20.8953H85.2507V0.484793H100.067ZM107.211 0.484793L114.678 11.6233L122.145 0.484793H124.487V20.8953H122.173V4.36291L114.707 15.2969H114.59L107.124 4.39175V20.8953H104.869V0.484793H107.211ZM167.112 9.72642H159.061V11.7161H167.112V9.72642ZM137.781 2.61321H132.598V11.5939H137.663C141.059 11.5939 143.285 9.786 143.285 7.07488C143.285 4.12923 141.089 2.61321 137.781 2.61321Z" fill="#627282"/>
<path d="M52.3722 0.134277C58.608 0.134277 62.7959 5.00403 62.7959 10.6608C62.7959 16.3176 58.5508 21.2454 52.3139 21.2454C46.0767 21.2454 41.8896 16.3764 41.8896 10.719C41.8896 5.06235 46.1353 0.134277 52.3722 0.134277ZM22.5642 0.484048V12.2059C22.5642 16.6093 24.9075 19.0881 28.8301 19.0881C32.6082 19.0881 35.0092 16.8133 35.0092 12.3524V0.484048H37.3222V12.1766C37.3222 18.1256 33.8965 21.2164 28.7722 21.2164C23.7064 21.2164 20.2513 18.1256 20.2513 12.3524V0.484048H22.5642ZM16.2403 0.484473V2.61278H9.35852V20.8953H7.01603V2.61278H0.135254V0.484473H16.2403ZM53.4529 2.87701H51.455V10.8942H53.4529V2.87701Z" fill="#00C3A5"/>
</svg>
