<svg width="146" height="61" viewBox="0 0 146 61" fill="none" xmlns="http://www.w3.org/2000/svg">
<g clip-path="url(#clip0_1848_1174)">
<path fill-rule="evenodd" clip-rule="evenodd" d="M56.7818 56.2767C57.4001 55.4585 57.7092 54.3777 57.7092 53.0339V52.9039C57.7092 51.5006 57.4028 50.3954 56.79 49.588C56.1826 48.7807 55.3447 48.3771 54.2763 48.3771C53.208 48.3771 52.3701 48.7536 51.7626 49.5068V44.8499H50.2577V57.3333H51.6407L51.7139 56.3173C52.3213 57.1029 53.1809 57.4958 54.2925 57.4958C55.3339 57.4958 56.1636 57.0894 56.7818 56.2767ZM55.6104 50.4901C56.0063 51.0483 56.2042 51.8392 56.2042 52.8632C56.2042 53.9848 56.0036 54.8246 55.6023 55.3827C55.201 55.9407 54.6397 56.2199 53.9184 56.2199C52.9422 56.2199 52.2237 55.7592 51.7626 54.8382V51.0347C52.1965 50.1136 52.9097 49.653 53.9022 49.653C54.6451 49.653 55.2146 49.932 55.6104 50.4901ZM132.02 57.3333H130.044V44.8499H132.02V57.3333ZM134.307 57.3333H136.283V48.5396H134.307V57.3333ZM134.469 45.5001C134.28 45.7005 134.184 45.9524 134.184 46.2559C134.184 46.5538 134.28 46.8031 134.469 47.0036C134.664 47.1987 134.941 47.2962 135.298 47.2962C135.657 47.2962 135.933 47.1987 136.129 47.0036C136.323 46.8031 136.421 46.5538 136.421 46.2559C136.421 45.9524 136.323 45.7005 136.129 45.5001C135.933 45.2996 135.657 45.1994 135.298 45.1994C134.941 45.1994 134.664 45.2996 134.469 45.5001ZM143.475 56.5124C143.539 56.8917 143.615 57.1653 143.701 57.3331H145.72V57.195C145.497 56.7237 145.385 56.0925 145.385 55.3014V51.3353C145.369 50.398 145.055 49.6719 144.442 49.1573C143.829 48.6371 143.008 48.377 141.977 48.377C141.299 48.377 140.683 48.4963 140.13 48.7347C139.583 48.9731 139.15 49.3035 138.829 49.7261C138.509 50.1433 138.35 50.5931 138.35 51.0753H140.326C140.326 50.7285 140.47 50.444 140.757 50.2219C141.044 49.9944 141.413 49.8805 141.863 49.8805C142.384 49.8805 142.771 50.0188 143.026 50.2951C143.281 50.566 143.409 50.9289 143.409 51.3841V51.9611H142.197C140.901 51.9611 139.902 52.213 139.203 52.717C138.509 53.2154 138.162 53.9334 138.162 54.8706C138.162 55.6129 138.441 56.2361 139.001 56.7399C139.559 57.2438 140.279 57.4958 141.164 57.4958C142.075 57.4958 142.845 57.168 143.475 56.5124ZM142.628 55.6265C142.287 55.8162 141.921 55.911 141.53 55.911C141.107 55.911 140.768 55.7998 140.513 55.5777C140.263 55.3502 140.139 55.0468 140.139 54.6675C140.139 54.2015 140.324 53.8413 140.691 53.5865C141.06 53.3319 141.611 53.2046 142.343 53.2046H143.409V54.8626C143.236 55.1822 142.975 55.4369 142.628 55.6265ZM125.935 56.5124C126.001 56.8917 126.077 57.1653 126.163 57.3331H128.181V57.195C127.958 56.7237 127.847 56.0925 127.847 55.3014V51.3353C127.831 50.398 127.516 49.6719 126.904 49.1573C126.291 48.6371 125.469 48.377 124.439 48.377C123.761 48.377 123.145 48.4963 122.592 48.7347C122.044 48.9731 121.61 49.3035 121.291 49.7261C120.971 50.1433 120.811 50.5931 120.811 51.0753H122.787C122.787 50.7285 122.931 50.444 123.219 50.2219C123.506 49.9944 123.875 49.8805 124.325 49.8805C124.845 49.8805 125.233 50.0188 125.488 50.2951C125.743 50.566 125.87 50.9289 125.87 51.3841V51.9611H124.658C123.362 51.9611 122.364 52.213 121.665 52.717C120.971 53.2154 120.624 53.9334 120.624 54.8706C120.624 55.6129 120.903 56.2361 121.461 56.7399C122.02 57.2438 122.741 57.4958 123.625 57.4958C124.536 57.4958 125.306 57.168 125.935 56.5124ZM125.09 55.6265C124.748 55.8162 124.382 55.911 123.991 55.911C123.568 55.911 123.229 55.7998 122.974 55.5777C122.725 55.3502 122.6 55.0468 122.6 54.6675C122.6 54.2015 122.785 53.8413 123.153 53.5865C123.522 53.3319 124.073 53.2046 124.805 53.2046H125.87V54.8626C125.697 55.1822 125.437 55.4369 125.09 55.6265ZM119.9 50.3439C119.639 50.3004 119.371 50.2789 119.094 50.2789C118.188 50.2789 117.578 50.6255 117.264 51.3191V57.3331H115.287V48.5396H117.174L117.223 49.523C117.7 48.7591 118.362 48.377 119.208 48.377C119.49 48.377 119.723 48.4149 119.908 48.4908L119.9 50.3439ZM105.948 50.5308C105.607 51.2188 105.436 51.9937 105.436 52.8551V52.9527C105.436 54.3289 105.807 55.4314 106.55 56.2605C107.299 57.0839 108.294 57.4958 109.536 57.4958C110.349 57.4958 111.065 57.3089 111.683 56.935C112.307 56.5612 112.784 56.0328 113.115 55.3502C113.451 54.6675 113.62 53.8927 113.62 53.0257L113.611 52.5625C113.552 51.3002 113.15 50.2869 112.407 49.523C111.67 48.7591 110.707 48.377 109.52 48.377C108.717 48.377 108.006 48.564 107.388 48.9378C106.77 49.3062 106.29 49.8372 105.948 50.5308ZM107.974 55.1551C107.6 54.6404 107.413 53.9307 107.413 53.0257C107.413 52.0072 107.602 51.2432 107.982 50.7339C108.362 50.2192 108.874 49.9618 109.52 49.9618C110.176 49.9618 110.694 50.2219 111.073 50.742C111.458 51.2622 111.651 51.9666 111.651 52.8551C111.651 53.8575 111.464 54.6187 111.089 55.1389C110.721 55.6591 110.203 55.919 109.536 55.919C108.869 55.919 108.348 55.6644 107.974 55.1551ZM102.979 46.4022V48.5396H104.533V50.0025H102.979V54.9114C102.979 55.2472 103.044 55.4911 103.174 55.6428C103.31 55.7891 103.549 55.8622 103.89 55.8622C104.118 55.8622 104.349 55.8351 104.582 55.7809V57.3089C104.132 57.4334 103.698 57.4958 103.28 57.4958C101.762 57.4958 101.002 56.6587 101.002 54.9844V50.0025H99.5544V48.5396H101.002V46.4022H102.979ZM96.626 55.4884C96.3006 55.7756 95.8911 55.919 95.3976 55.919C94.7468 55.919 94.2478 55.6861 93.9008 55.2201C93.5592 54.7487 93.3883 54.0363 93.3883 53.0827V52.7658C93.3937 51.823 93.57 51.1213 93.9171 50.6608C94.2642 50.1948 94.7576 49.9618 95.3976 49.9618C95.8965 49.9618 96.3059 50.1244 96.626 50.4495C96.9514 50.7746 97.1249 51.189 97.1465 51.693H99.0095C98.9769 50.7014 98.6299 49.9023 97.9682 49.2955C97.312 48.6832 96.4605 48.377 95.4138 48.377C94.1774 48.377 93.2011 48.7807 92.4854 49.588C91.7695 50.3899 91.4116 51.46 91.4116 52.7982V53.0015C91.4116 54.4047 91.7721 55.5046 92.4934 56.3011C93.2147 57.0974 94.1909 57.4958 95.422 57.4958C96.0565 57.4958 96.6476 57.3575 97.1953 57.0812C97.7431 56.8049 98.177 56.4311 98.497 55.9598C98.8169 55.4829 98.9877 54.9709 99.0095 54.4236H97.1465C97.1249 54.8463 96.9514 55.2012 96.626 55.4884ZM81.9264 52.8551C81.9264 51.9937 82.0972 51.2188 82.4389 50.5308C82.7805 49.8372 83.2605 49.3062 83.8787 48.9378C84.497 48.564 85.2074 48.377 86.0101 48.377C87.1977 48.377 88.1604 48.7591 88.8979 49.523C89.6409 50.2869 90.0421 51.3002 90.1019 52.5625L90.1101 53.0257C90.1101 53.8927 89.9419 54.6675 89.6056 55.3502C89.2748 56.0328 88.7975 56.5612 88.1739 56.935C87.5557 57.3089 86.8398 57.4958 86.0263 57.4958C84.7844 57.4958 83.7892 57.0839 83.0409 56.2605C82.2978 55.4314 81.9264 54.3289 81.9264 52.9527V52.8551ZM83.9032 53.0257C83.9032 53.9307 84.0902 54.6404 84.4645 55.1551C84.8386 55.6644 85.3593 55.919 86.0263 55.919C86.6934 55.919 87.2113 55.6591 87.5801 55.1389C87.9543 54.6187 88.1413 53.8575 88.1413 52.8551C88.1413 51.9666 87.9489 51.2622 87.5638 50.742C87.1842 50.2219 86.6663 49.9618 86.0101 49.9618C85.3647 49.9618 84.8522 50.2192 84.4725 50.7339C84.0929 51.2432 83.9032 52.0072 83.9032 53.0257ZM71.6033 45.5001V57.3333H75.0118C76.0802 57.3333 77.0265 57.1029 77.8509 56.6424C78.6806 56.1819 79.3179 55.5263 79.7626 54.6757C80.2126 53.825 80.4377 52.8388 80.4377 51.7174V51.124C80.4377 50.0188 80.2155 49.0381 79.7708 48.1821C79.326 47.3259 78.697 46.665 77.8835 46.199C77.0754 45.7331 76.148 45.5001 75.1013 45.5001H71.6033ZM73.6614 55.6915V47.1579H75.1013C76.1642 47.1579 76.975 47.4966 77.5337 48.1739C78.0922 48.8512 78.3715 49.8319 78.3715 51.116V51.7742C78.3607 53.0366 78.0651 54.0064 77.4848 54.6837C76.9099 55.3555 76.0829 55.6915 75.0037 55.6915H73.6614ZM62.3949 55.1307L64.4448 48.5396H66.0555L62.5169 58.6904C61.9691 60.1533 61.0987 60.8848 59.9056 60.8848L59.6209 60.8604L59.0596 60.7548V59.5357L59.4663 59.5681C59.9761 59.5681 60.3719 59.4652 60.654 59.2594C60.9415 59.0535 61.1774 58.6769 61.3617 58.1296L61.6952 57.2357L58.5553 48.5396H60.1984L62.3949 55.1307Z" fill="#627282"/>
<path d="M58.2305 10.8714L58.4529 9.63317C58.516 9.37976 58.2305 9.2523 58.0088 9.15822C56.8013 8.71363 55.7844 8.49133 54.7677 8.49133C51.749 8.49133 50.1921 10.4913 50.1921 13.6019V16.6807L48.0636 17.2202V18.4265C48.0636 18.7436 48.2223 18.9022 48.5397 18.9022H50.1921V31.8213C50.1921 32.1384 50.3509 32.297 50.6684 32.297H52.5433C52.8608 32.297 53.0194 32.1384 53.0194 31.8213V18.9022H56.8325C57.1506 18.9022 57.3094 18.7436 57.3094 18.4265V16.9978C57.3094 16.6799 57.1498 16.5215 56.8325 16.5215H53.0194V14.1087C53.0194 11.7279 53.7508 10.9343 55.4982 10.9343C56.1019 10.9343 56.9912 11.1248 57.7535 11.3789C58.0399 11.5064 58.1667 11.2204 58.2305 10.8714Z" fill="#052B3B"/>
<path fill-rule="evenodd" clip-rule="evenodd" d="M73.815 23.3141V23.2822C73.815 20.4894 72.3533 16.2043 66.6023 16.2051C62.1226 16.2051 59.1995 18.9348 59.1995 24.4263C59.1995 30.6795 63.3937 32.6157 66.8885 32.6157C70.0978 32.6157 72.1626 31.2189 73.1795 30.4253C73.4339 30.2667 73.5925 30.0763 73.4657 29.8222L72.7989 28.6795C72.6084 28.3616 72.3859 28.1713 72.1315 28.3616C71.1465 29.1234 69.431 30.0755 67.4611 30.1392C64.4106 30.2022 62.3768 29.0597 62.1232 25.5362L71.6546 25.4725C73.307 25.4725 73.815 24.6471 73.815 23.3141ZM66.5072 18.711C69.6846 18.711 70.7964 20.2352 70.9871 23.2822H62.1226C62.3768 20.0121 63.8381 18.711 66.5072 18.711Z" fill="#052B3B"/>
<path fill-rule="evenodd" clip-rule="evenodd" d="M90.2951 23.2822V23.3141C90.2951 24.6471 89.7871 25.4725 88.1345 25.4725L78.6032 25.5362C78.8568 29.0597 80.8906 30.2022 83.941 30.1392C85.911 30.0755 87.6265 29.1234 88.6114 28.3616C88.8659 28.1713 89.0883 28.3616 89.279 28.6795L89.9457 29.8222C90.0725 30.0763 89.9139 30.2667 89.6595 30.4253C88.6426 31.2189 86.5778 32.6157 83.3684 32.6157C79.8737 32.6157 75.6796 30.6795 75.6796 24.4263C75.6796 18.9348 78.6025 16.2051 83.0822 16.2051C88.8332 16.2043 90.2951 20.4894 90.2951 23.2822ZM87.4671 23.2822C87.2764 20.2352 86.1646 18.711 82.9873 18.711C80.3187 18.711 78.8568 20.0121 78.6025 23.2822H87.4671Z" fill="#052B3B"/>
<path fill-rule="evenodd" clip-rule="evenodd" d="M106.552 30.2031V16.998C106.552 16.68 106.362 16.5533 106.076 16.523C104.106 16.3325 101.596 16.2058 100.039 16.2058C95.3049 16.2058 92.1594 19.1898 92.1594 24.4271C92.1594 28.0142 93.4306 32.6166 98.4822 32.6166C100.896 32.6166 102.739 31.0611 103.724 29.9815V31.156C103.724 36.2984 102.358 37.8538 97.8785 37.8538C96.608 37.8538 94.9556 37.473 94.0343 37.2188C93.7488 37.1232 93.6213 37.3774 93.5582 37.7263L93.3358 38.9963C93.2727 39.2499 93.5582 39.4083 93.7807 39.4721C94.7657 39.7892 96.5443 40.2338 98.2286 40.2338C104.329 40.2338 106.552 37.7582 106.552 30.2031ZM103.724 18.8386V27.4407C102.645 28.5522 100.801 30.1075 99.0221 30.1075C95.5585 30.1075 95.0504 26.7108 95.0504 24.4257C95.0504 20.4258 96.8936 18.7119 100.007 18.7119C101.087 18.7119 102.389 18.743 103.724 18.8386Z" fill="#052B3B"/>
<path fill-rule="evenodd" clip-rule="evenodd" d="M108.417 24.4255C108.417 18.4583 111.689 16.2042 116.233 16.2042C120.744 16.2042 124.016 18.6488 124.016 24.4255C124.016 29.7265 120.744 32.6148 116.233 32.6148C111.689 32.6148 108.417 29.7265 108.417 24.4255ZM121.125 24.4255C121.125 20.2671 119.219 18.7117 116.233 18.7117C113.214 18.7117 111.308 20.2671 111.308 24.4255C111.308 28.5202 113.214 30.1393 116.233 30.1393C119.219 30.1393 121.125 28.5202 121.125 24.4255Z" fill="#052B3B"/>
<path d="M140.42 32.1712L145.775 16.8128C145.872 16.4842 145.741 16.2545 145.381 16.2551H143.213C142.918 16.2551 142.72 16.3864 142.655 16.6489L138.746 29.0536L134.87 16.6489C134.804 16.3864 134.607 16.2551 134.312 16.2551H132.374C132.012 16.2551 131.881 16.4851 131.98 16.8128L133.326 20.7505L130.6 29.1189L126.691 16.6489C126.626 16.3864 126.428 16.2551 126.133 16.2551H123.965C123.603 16.2551 123.472 16.4851 123.571 16.8128L128.925 32.1712C129.023 32.4337 129.188 32.5649 129.483 32.5649H131.487C131.782 32.5649 131.946 32.4337 132.045 32.1712L134.673 24.525L137.3 32.1712C137.398 32.4337 137.563 32.5649 137.859 32.5649H139.862C140.157 32.5649 140.322 32.4337 140.42 32.1712Z" fill="#052B3B"/>
<path d="M38.6546 15.4927C39.509 15.4927 40.2038 14.7985 40.2038 13.9449V8.56046C40.2038 3.85881 36.3756 0.0334473 31.6695 0.0334473H8.53498C3.82893 0.0334473 0 3.85881 0 8.56046V20.1169C0 20.9705 0.694858 21.6639 1.54919 21.6639H12.2014L16.0493 30.81C16.3106 31.4314 16.9288 31.81 17.5886 31.7538C18.2516 31.7069 18.8097 31.2425 18.9768 30.5991L23.0731 14.8417L25.5449 20.7163C25.7871 21.2914 26.3476 21.6639 26.9734 21.6639H37.1062V31.6735C37.1062 34.668 34.6678 37.1049 31.6695 37.1049H8.53498C5.5376 37.1049 3.09838 34.6688 3.09838 31.6735V26.311C3.09838 25.4574 2.40353 24.7632 1.54919 24.7632C0.694858 24.7632 0 25.4574 0 26.311V31.6735C0 36.3751 3.82893 40.1997 8.53498 40.1997H31.6695C36.3756 40.1997 40.2045 36.3744 40.2045 31.6735V20.1169C40.2045 19.2634 39.5097 18.5692 38.6554 18.5692H28.0024L24.1544 9.42309C23.8985 8.81462 23.2827 8.43527 22.6144 8.47852C21.9514 8.52631 21.394 8.99064 21.2269 9.63326L17.1307 25.39L14.6596 19.5168C14.4174 18.941 13.8569 18.5684 13.2312 18.5684H3.09838V8.56046C3.09838 5.56587 5.53684 3.12969 8.53498 3.12969H31.6695C34.667 3.12969 37.1062 5.56587 37.1062 8.56046V13.9449C37.1054 14.7985 37.8002 15.4927 38.6546 15.4927Z" fill="url(#paint0_linear_1848_1174)"/>
</g>
<defs>
<linearGradient id="paint0_linear_1848_1174" x1="2.48443" y1="37.8502" x2="38.1326" y2="1.90046" gradientUnits="userSpaceOnUse">
<stop stop-color="#00E969"/>
<stop offset="0.1379" stop-color="#00D58C"/>
<stop offset="0.3136" stop-color="#00C1B1"/>
<stop offset="0.4895" stop-color="#00B0CE"/>
<stop offset="0.6635" stop-color="#00A4E2"/>
<stop offset="0.8348" stop-color="#009DEF"/>
<stop offset="1" stop-color="#009BF3"/>
</linearGradient>
<clipPath id="clip0_1848_1174">
<rect width="146" height="61" fill="white"/>
</clipPath>
</defs>
</svg>
