<svg width="97" height="55" viewBox="0 0 97 55" fill="none" xmlns="http://www.w3.org/2000/svg">
<g clip-path="url(#clip0_1844_909)">
<path d="M21.4981 19.5225C21.6181 19.6401 21.7807 19.7464 21.9592 19.8437C22.2646 19.9497 22.5252 20.0557 22.7411 20.1611C23.0517 20.3138 23.2656 20.428 23.3822 20.5038L22.5663 22.7882C22.3914 22.6739 22.1392 22.5505 21.8085 22.4175C21.4779 22.2846 21.1038 22.1506 20.6862 22.0177C20.2687 21.8849 19.812 21.7748 19.3171 21.6896C18.8221 21.6034 18.3208 21.5609 17.8165 21.5609C16.7483 21.5609 15.786 21.7415 14.9318 22.1029C14.0766 22.4643 13.3485 22.9886 12.7467 23.6729C12.1447 24.3583 11.6827 25.1911 11.3626 26.1713C11.0425 27.1515 10.8815 28.2512 10.8815 29.4692C10.8815 30.6498 11.0225 31.7245 11.3043 32.6965C11.5862 33.6674 12.008 34.5002 12.5717 35.1949C13.1345 35.8895 13.8392 36.4274 14.6849 36.8086C15.5295 37.1896 16.5161 37.3796 17.6427 37.3796C18.944 37.3796 20.0229 37.2467 20.877 36.9799C21.7322 36.713 22.3734 36.4752 22.8004 36.2654L23.5295 38.5499C23.3929 38.6454 23.1502 38.7638 22.8004 38.9071C22.4508 39.0504 22.0141 39.1885 21.4885 39.3214C20.9628 39.4544 20.3524 39.5686 19.6519 39.664C18.9536 39.7596 18.1958 39.8074 17.3799 39.8074C15.9619 39.8074 14.6701 39.5789 13.5043 39.122C12.3386 38.6652 11.3383 37.9985 10.5021 37.1231C9.66698 36.2478 9.02054 35.1668 8.56378 33.8823C8.10704 32.5968 7.87919 31.1264 7.87919 29.4702C7.87919 27.814 8.13671 26.3437 8.65175 25.0581C8.94836 24.3177 9.30439 23.6456 9.72001 23.0414C9.64736 23.0422 9.57424 23.0426 9.50065 23.0426C8.0827 23.0426 6.79087 22.8142 5.62515 22.3573C4.45942 21.9004 3.45796 21.2337 2.62288 20.3583C1.78779 19.4831 1.14135 18.4021 0.684598 17.1176C0.227846 15.8331 0 14.3617 0 12.7055C0 11.0493 0.257519 9.57889 0.772557 8.29336C1.2876 7.00784 1.98173 5.92792 2.85602 5.05256C3.73031 4.1772 4.75085 3.51056 5.91658 3.05366C7.08231 2.59677 8.32538 2.36833 9.64689 2.36833C10.4819 2.36833 11.2354 2.42544 11.9052 2.53967C12.5761 2.65389 13.1589 2.7868 13.6538 2.93944C14.1498 3.09209 14.5525 3.24369 14.863 3.39633C15.1735 3.54897 15.3876 3.6632 15.5041 3.739L14.6881 6.02345C14.5132 5.90923 14.261 5.78566 13.9304 5.65171C13.5998 5.5188 13.2256 5.38484 12.8081 5.25192C12.3906 5.11902 11.9338 5.00895 11.439 4.9238C10.944 4.83761 10.4428 4.79504 9.93832 4.79504C8.8701 4.79504 7.90784 4.97572 7.05369 5.33708C6.19847 5.69947 5.47042 6.22282 4.86849 6.90712C4.26654 7.59245 3.8045 8.42524 3.48445 9.40548C3.16335 10.3857 3.00333 11.4853 3.00333 12.7034C3.00333 13.8841 3.14428 14.9588 3.42617 15.9307C3.70806 16.9016 4.12984 17.7344 4.69363 18.4291C5.25741 19.1237 5.96108 19.6616 6.80677 20.0427C7.65245 20.4238 8.63801 20.6139 9.76453 20.6139C11.0235 20.6139 12.0829 20.5079 12.9336 20.2077C13.2112 20.0644 13.4983 19.9347 13.7947 19.8184C14.9604 19.3615 16.2035 19.1331 17.5251 19.1331C17.8208 19.1331 18.1063 19.1403 18.3815 19.1545C18.3397 18.8557 18.3188 18.5347 18.3188 18.1913V0.51481L21.0074 0.0610352V17.7656C21.0074 18.1996 21.0455 18.5589 21.1229 18.8423C21.1992 19.1258 21.3253 19.3522 21.4981 19.5225Z" fill="#00C3A5"/>
<path d="M28.4447 5.48971C27.9593 5.48971 27.546 5.33291 27.2058 5.01827C26.8657 4.70364 26.6961 4.28103 26.6961 3.74729C26.6961 3.2146 26.8657 2.79094 27.2058 2.47631C27.546 2.16271 27.9583 2.00488 28.4447 2.00488C28.93 2.00488 29.3433 2.16168 29.6835 2.47631C30.0237 2.79094 30.1933 3.2146 30.1933 3.74729C30.1933 4.27998 30.0226 4.70364 29.6835 5.01827C29.3423 5.33291 28.93 5.48971 28.4447 5.48971Z" fill="#00C3A5"/>
<path d="M29.7736 23.0997L29.8138 8.17395H27.1031L27.1495 22.6116L27.0871 35.848C27.0871 37.256 27.4336 38.2934 28.1268 38.96C28.8198 39.6267 29.994 39.9787 31.6504 40.0172L32.0245 37.7898C31.6006 37.7326 31.2445 37.6621 30.9563 37.5759C30.6681 37.4907 30.4359 37.362 30.2632 37.1906C30.0905 37.0193 29.9644 36.7908 29.888 36.5053C29.8107 36.2198 29.7726 35.8584 29.7726 35.4202L29.7736 23.0997Z" fill="#00C3A5"/>
<path d="M37.0583 8.13758C36.0283 8.30891 35.2027 8.4709 34.5806 8.62251V23.0426H37.2904V10.5072C37.3879 10.4874 37.548 10.4594 37.7716 10.421C37.9951 10.3836 38.2473 10.3504 38.5293 10.3214C38.8112 10.2922 39.1079 10.2694 39.4184 10.2496C39.73 10.2309 40.0309 10.2216 40.3224 10.2216C41.0409 10.2216 41.6439 10.312 42.1293 10.4926C42.6146 10.6744 43.0036 10.964 43.295 11.3639C43.5864 11.7626 43.7941 12.287 43.9212 12.9339C44.0474 13.5808 44.1109 14.3616 44.1109 15.2755V23.0426H46.8218V14.7043C46.8218 13.696 46.7243 12.7729 46.5304 11.9349C46.3354 11.098 46.0005 10.3795 45.5247 9.77927C45.0488 9.18012 44.412 8.71389 43.6161 8.38056C42.8191 8.04828 41.8187 7.8811 40.6138 7.8811C39.2732 7.8811 38.0874 7.96625 37.0583 8.13758Z" fill="#00C3A5"/>
<path d="M52.8719 5.50948C52.3865 5.50948 51.9732 5.35269 51.633 5.03806C51.2928 4.72446 51.1233 4.3008 51.1233 3.76707C51.1233 3.23438 51.2928 2.81072 51.633 2.49608C51.9732 2.18145 52.3854 2.02466 52.8719 2.02466C53.3572 2.02466 53.7705 2.18145 54.1107 2.49608C54.4509 2.81072 54.6204 3.23438 54.6204 3.76707C54.6204 4.29976 54.4498 4.72343 54.1107 5.03806C53.7705 5.35269 53.3583 5.50948 52.8719 5.50948Z" fill="#00C3A5"/>
<path d="M54.2422 23.0427H51.5324V8.19373H54.2422V23.0427Z" fill="#00C3A5"/>
<path fill-rule="evenodd" clip-rule="evenodd" d="M62.7276 22.3574C63.8933 22.8142 65.1851 23.0427 66.603 23.0427C67.419 23.0427 68.1767 22.995 68.8762 22.8994C69.5658 22.8054 70.1692 22.6931 70.6884 22.5628V39.4627C71.4843 39.6527 72.3733 39.7815 73.3547 39.848C74.336 39.9144 75.2347 39.9477 76.0507 39.9477C77.7018 39.9477 79.2172 39.7431 80.597 39.3339C81.9768 38.9238 83.1616 38.3049 84.1525 37.4773C85.1434 36.6486 85.9117 35.602 86.4553 34.3362C86.9989 33.0704 87.2714 31.5803 87.2714 29.867C87.2714 28.1537 86.9989 26.6646 86.4553 25.3978C85.9105 24.132 85.1434 23.0842 84.1525 22.2567C83.1616 21.429 81.9768 20.8101 80.597 20.401C79.2172 19.9919 77.7018 19.7874 76.0507 19.7874C75.2347 19.7874 74.336 19.8206 73.3547 19.887C72.3854 19.9527 71.5071 20.0791 70.7177 20.2653C70.6022 20.2803 70.4636 20.3049 70.2942 20.344C69.4199 20.5454 68.1672 20.6139 66.8658 20.6139C65.7394 20.6139 64.7527 20.4238 63.9081 20.0428C63.0624 19.6617 62.3576 19.1238 61.7949 18.4292C61.2312 17.7345 60.8093 16.9017 60.5275 15.9308C60.2456 14.9589 60.1046 13.8842 60.1046 12.7035C60.1046 11.4854 60.2647 10.3858 60.5857 9.40555C60.9058 8.42532 61.3668 7.59253 61.9698 6.9072C62.5707 6.22289 63.2998 5.69955 64.155 5.33716C65.0092 4.9758 65.9714 4.79512 67.0396 4.79512C67.5441 4.79512 68.0454 4.83769 68.5402 4.92388C69.0362 5.00903 69.4918 5.1191 69.9105 5.252C70.328 5.38492 70.7021 5.51888 71.0328 5.65179C71.3634 5.78574 71.6156 5.90931 71.7905 6.02353L72.6065 3.73908C72.4899 3.66328 72.2758 3.54905 71.9653 3.39641C71.6549 3.24376 71.2521 3.09216 70.7562 2.93952C70.2602 2.78688 69.6773 2.65397 69.0075 2.53974C68.3378 2.42552 67.5844 2.36841 66.7492 2.36841C65.4278 2.36841 64.1847 2.59685 63.019 3.05374C61.8532 3.51064 60.8327 4.17728 59.9584 5.05263C59.0841 5.928 58.39 7.00792 57.8749 8.29344C57.3599 9.57897 57.1024 11.0493 57.1024 12.7055C57.1024 14.3617 57.3302 15.8332 57.787 17.1176C58.2438 18.4021 58.8901 19.4831 59.7253 20.3584C60.5603 21.2338 61.5618 21.9005 62.7276 22.3574ZM82.2884 35.5064C80.9669 36.8491 78.9661 37.5199 76.2849 37.5199C75.488 37.5199 74.8712 37.5105 74.4346 37.4918C73.9979 37.4732 73.6917 37.4534 73.5168 37.4348V22.3002C73.6917 22.2815 73.9979 22.2619 74.4346 22.2432C74.8712 22.2234 75.488 22.214 76.2849 22.214C78.9661 22.214 80.9669 22.8849 82.2884 24.2275C83.6089 25.569 84.2701 27.4496 84.2701 29.867C84.2701 32.2844 83.6089 34.1649 82.2884 35.5064Z" fill="#00C3A5"/>
<path d="M63.7915 39.1356C63.1695 39.2882 62.3492 39.4501 61.3287 39.6205C60.3092 39.7919 59.1286 39.878 57.7881 39.878C56.6223 39.878 55.641 39.7108 54.8451 39.3785C54.0482 39.0452 53.407 38.5749 52.9217 37.9652C52.4352 37.3557 52.0866 36.6372 51.8725 35.8096C51.6585 34.981 51.5515 34.063 51.5515 33.0537V24.7155H54.2622V32.4827C54.2622 34.2915 54.5536 35.5853 55.1365 36.3662C55.7194 37.147 56.6997 37.5365 58.0795 37.5365C58.3709 37.5365 58.6718 37.5271 58.9834 37.5084C59.294 37.4897 59.5854 37.4658 59.8577 37.4368C60.13 37.4077 60.3771 37.3796 60.6006 37.3506C60.8242 37.3215 60.9843 37.2893 61.0818 37.2508V24.7145H63.7915V39.1356Z" fill="#00C3A5"/>
<path d="M40.655 25.7996H40.6243C39.3007 25.8068 38.0533 26.2679 37.1123 27.0986C36.2936 27.8211 35.7877 28.7482 35.6531 29.7529C33.5464 29.8113 32.1378 31.8687 32.1378 33.7931C32.1378 35.9375 33.919 37.6955 36.1522 37.8051V37.8054H36.1569C36.2287 37.8088 36.301 37.8105 36.3737 37.8105C36.4373 37.8105 36.5011 37.8087 36.5648 37.8054H37.1282V35.9944H36.1522C34.9239 35.9135 34.003 34.9478 34.003 33.7931C34.003 33.2116 34.2372 32.5449 34.6219 32.0694C34.6971 31.9385 34.801 31.8232 34.9302 31.7329C34.997 31.6685 35.0691 31.6104 35.156 31.5646C35.2577 31.4878 35.7452 31.2781 35.8978 31.2583C35.9215 31.2531 35.947 31.2452 35.9734 31.2369C36.02 31.2224 36.0694 31.207 36.1161 31.2043C36.1924 31.1898 36.3895 31.1899 36.4001 31.1899C36.4662 31.1754 36.6541 31.2078 36.7477 31.2239L36.7479 31.224C36.7758 31.2288 36.7953 31.2322 36.8007 31.2324C36.8018 31.232 36.803 31.2315 36.804 31.2308C36.863 31.2427 36.9127 31.2525 36.9453 31.2589L36.9461 31.2591C36.9608 31.2621 36.972 31.2642 36.9788 31.2656C36.9903 31.2668 37.0025 31.2675 37.0145 31.2683C37.0345 31.2695 37.0547 31.2707 37.0731 31.2739C37.0921 31.2688 37.1102 31.2594 37.1261 31.2458C37.1314 31.2417 37.1409 31.0693 37.1409 31.0465C37.1409 30.9697 37.1494 30.8939 37.1642 30.8201C37.1748 30.3809 37.7524 29.1192 37.8987 28.9552C38.03 28.7838 38.3511 28.462 38.3596 28.4557C39.0432 27.977 39.767 27.6313 40.6539 27.6271C42.1535 27.6271 43.4083 28.517 43.7272 29.7018C43.7665 29.8108 43.8957 30.437 43.8819 30.6041C43.9021 30.7174 43.9191 30.9375 43.9042 31.0683C43.9447 31.1138 44.0042 31.0776 44.0485 31.0504C44.0556 31.0462 44.0622 31.0422 44.0683 31.0387C44.072 31.0366 44.0756 31.0346 44.0791 31.033C44.1145 31.017 44.1472 31.0019 44.178 30.9879C44.4604 30.8585 44.5717 30.8074 45.0771 30.725C45.1869 30.7098 45.3045 30.6992 45.4409 30.6965H45.4843C46.8546 30.6965 47.9694 31.8928 47.9694 33.3621C47.9694 34.664 47.0725 35.7516 45.8919 35.9824L38.8767 36.0079L38.8841 37.822L44.4525 37.8393C44.7698 37.852 45.0955 37.8542 45.4239 37.8542C47.856 37.8542 49.8346 35.8387 49.8346 33.361C49.8346 30.8835 47.8835 28.869 45.4843 28.869L45.4234 28.8698C44.7553 27.0882 42.8668 25.7996 40.655 25.7996Z" fill="#627282"/>
<path d="M37.0116 35.9071C37.0116 35.9071 37.0011 35.9092 36.983 35.9123L37.0116 35.9071Z" fill="#627282"/>
<path fill-rule="evenodd" clip-rule="evenodd" d="M32.9298 51.6987C33.3751 51.1208 33.5977 50.3573 33.5977 49.4081V49.3164C33.5977 48.3252 33.3771 47.5444 32.9356 46.9742C32.4982 46.404 31.8947 46.1189 31.1254 46.1189C30.3559 46.1189 29.7525 46.3848 29.315 46.9168V43.6274H28.2311V52.445H29.2271L29.2799 51.7274C29.7174 52.2823 30.3364 52.5598 31.137 52.5598C31.887 52.5598 32.4846 52.2728 32.9298 51.6987ZM32.0861 47.6113C32.3713 48.0056 32.5139 48.5644 32.5139 49.2876C32.5139 50.0799 32.3693 50.673 32.0803 51.0672C31.7913 51.4613 31.3871 51.6585 30.8676 51.6585C30.1645 51.6585 29.647 51.3331 29.315 50.6826V47.9961C29.6275 47.3454 30.1411 47.0201 30.8559 47.0201C31.391 47.0201 31.8011 47.2172 32.0861 47.6113ZM87.1166 52.445H85.6929V43.6274H87.1166V52.445ZM88.7628 52.445H90.1864V46.2337H88.7628V52.445ZM88.8799 44.0867C88.7433 44.2283 88.6749 44.4062 88.6749 44.6206C88.6749 44.831 88.7433 45.0071 88.8799 45.1486C89.0206 45.2865 89.2197 45.3554 89.4776 45.3554C89.7354 45.3554 89.9345 45.2865 90.0752 45.1486C90.2158 45.0071 90.286 44.831 90.286 44.6206C90.286 44.4062 90.2158 44.2283 90.0752 44.0867C89.9345 43.945 89.7354 43.8743 89.4776 43.8743C89.2197 43.8743 89.0206 43.945 88.8799 44.0867ZM95.3655 51.8651C95.4124 52.1331 95.467 52.3263 95.5296 52.445H96.9825V52.3473C96.8224 52.0144 96.7423 51.5686 96.7423 51.0098V48.2084C96.7306 47.5463 96.5041 47.0335 96.0627 46.67C95.6213 46.3026 95.0296 46.1189 94.2875 46.1189C93.7993 46.1189 93.356 46.2031 92.9576 46.3714C92.5631 46.5398 92.2506 46.7733 92.0202 47.0718C91.7897 47.3665 91.6746 47.6842 91.6746 48.0247H93.0982C93.0982 47.7798 93.2017 47.5789 93.4087 47.422C93.6158 47.2612 93.8813 47.1809 94.2055 47.1809C94.5804 47.1809 94.8597 47.2785 95.0433 47.4736C95.2268 47.665 95.3186 47.9214 95.3186 48.2428V48.6504H94.4457C93.5122 48.6504 92.7936 48.8284 92.2897 49.1843C91.7897 49.5364 91.5398 50.0435 91.5398 50.7055C91.5398 51.2298 91.7409 51.6699 92.1432 52.0259C92.5456 52.3818 93.065 52.5598 93.7016 52.5598C94.3578 52.5598 94.9124 52.3283 95.3655 51.8651ZM94.7562 51.2395C94.5102 51.3734 94.2465 51.4404 93.9653 51.4404C93.6607 51.4404 93.4165 51.3619 93.233 51.2049C93.0533 51.0443 92.9635 50.83 92.9635 50.5621C92.9635 50.233 93.0962 49.9784 93.3618 49.7986C93.6274 49.6187 94.0238 49.5288 94.5511 49.5288H95.3186V50.6998C95.1937 50.9256 95.0062 51.1055 94.7562 51.2395ZM82.7342 51.8651C82.7811 52.1331 82.8358 52.3263 82.8983 52.445H84.3513V52.3473C84.1911 52.0144 84.1111 51.5686 84.1111 51.0098V48.2084C84.0993 47.5463 83.8728 47.0335 83.4315 46.67C82.9901 46.3026 82.3983 46.1189 81.6562 46.1189C81.168 46.1189 80.7247 46.2031 80.3264 46.3714C79.9318 46.5398 79.6194 46.7733 79.389 47.0718C79.1586 47.3665 79.0433 47.6842 79.0433 48.0247H80.4669C80.4669 47.7798 80.5705 47.5789 80.7774 47.422C80.9845 47.2612 81.2501 47.1809 81.5742 47.1809C81.9492 47.1809 82.2284 47.2785 82.412 47.4736C82.5956 47.665 82.6874 47.9214 82.6874 48.2428V48.6504H81.8144C80.881 48.6504 80.1623 48.8284 79.6584 49.1843C79.1585 49.5364 78.9085 50.0435 78.9085 50.7055C78.9085 51.2298 79.1097 51.6699 79.512 52.0259C79.9143 52.3818 80.4337 52.5598 81.0704 52.5598C81.7265 52.5598 82.2811 52.3283 82.7342 51.8651ZM82.125 51.2395C81.8789 51.3734 81.6153 51.4404 81.334 51.4404C81.0294 51.4404 80.7853 51.3619 80.6017 51.2049C80.4221 51.0443 80.3322 50.83 80.3322 50.5621C80.3322 50.233 80.465 49.9784 80.7306 49.7986C80.9961 49.6187 81.3927 49.5288 81.9199 49.5288H82.6874V50.6998C82.5624 50.9256 82.3749 51.1055 82.125 51.2395ZM78.3871 47.508C78.1996 47.4774 78.0063 47.4622 77.8071 47.4622C77.1549 47.4622 76.7155 47.7071 76.4889 48.197V52.445H75.0653V46.2337H76.4245L76.4596 46.9282C76.8033 46.3887 77.2798 46.1189 77.8891 46.1189C78.0923 46.1189 78.2601 46.1456 78.393 46.1993L78.3871 47.508ZM68.3395 47.6401C68.0934 48.1261 67.9704 48.6734 67.9704 49.2819V49.3508C67.9704 50.3229 68.238 51.1016 68.773 51.6872C69.312 52.2689 70.0288 52.5598 70.9232 52.5598C71.5091 52.5598 72.0246 52.4277 72.4699 52.1637C72.919 51.8996 73.2627 51.5265 73.501 51.0443C73.7431 50.5621 73.8642 50.0148 73.8642 49.4024L73.8584 49.0752C73.8154 48.1836 73.5264 47.4679 72.9913 46.9282C72.4601 46.3887 71.7669 46.1189 70.9114 46.1189C70.3335 46.1189 69.8217 46.2509 69.3765 46.515C68.9313 46.7752 68.5856 47.1502 68.3395 47.6401ZM69.7984 50.9065C69.5288 50.5429 69.3941 50.0416 69.3941 49.4024C69.3941 48.683 69.5308 48.1433 69.8042 47.7836C70.0776 47.4201 70.4467 47.2383 70.9114 47.2383C71.3841 47.2383 71.757 47.4219 72.0305 47.7893C72.3078 48.1567 72.4465 48.6543 72.4465 49.2819C72.4465 49.9899 72.3117 50.5276 72.0422 50.895C71.7766 51.2624 71.4036 51.4461 70.9232 51.4461C70.4428 51.4461 70.0679 51.2662 69.7984 50.9065ZM66.2011 44.7239V46.2337H67.3201V47.267H66.2011V50.7343C66.2011 50.9716 66.248 51.1437 66.3417 51.2509C66.4394 51.3543 66.6112 51.406 66.8573 51.406C67.0213 51.406 67.1873 51.3868 67.3553 51.3485V52.4277C67.0311 52.5158 66.7187 52.5598 66.4179 52.5598C65.3243 52.5598 64.7775 51.9685 64.7775 50.7859V47.267H63.7346V46.2337H64.7775V44.7239H66.2011ZM61.6255 51.1419C61.3912 51.3447 61.0963 51.4461 60.7408 51.4461C60.2722 51.4461 59.9128 51.2815 59.6629 50.9524C59.4167 50.6194 59.2937 50.1162 59.2937 49.4427V49.2187C59.2977 48.5528 59.4246 48.0573 59.6746 47.732C59.9245 47.4029 60.28 47.2383 60.7408 47.2383C61.1002 47.2383 61.3951 47.3531 61.6255 47.5827C61.8598 47.8124 61.9848 48.1051 62.0005 48.461H63.3421C63.3186 47.7606 63.0687 47.1961 62.5921 46.7676C62.1196 46.3351 61.5064 46.1189 60.7526 46.1189C59.8621 46.1189 59.159 46.404 58.6435 46.9742C58.1279 47.5406 57.8701 48.2964 57.8701 49.2417V49.3852C57.8701 50.3764 58.1298 51.1533 58.6493 51.7159C59.1688 52.2785 59.8718 52.5598 60.7585 52.5598C61.2154 52.5598 61.6411 52.4622 62.0356 52.267C62.4301 52.0719 62.7426 51.8078 62.973 51.4748C63.2035 51.138 63.3265 50.7764 63.3421 50.3898H62.0005C61.9848 50.6883 61.8598 50.939 61.6255 51.1419ZM51.0389 49.2819C51.0389 48.6734 51.162 48.1261 51.408 47.6401C51.6541 47.1502 51.9998 46.7752 52.445 46.515C52.8902 46.2509 53.4019 46.1189 53.9799 46.1189C54.8353 46.1189 55.5286 46.3887 56.0598 46.9282C56.5949 47.4679 56.8839 48.1836 56.9269 49.0752L56.9327 49.4024C56.9327 50.0148 56.8117 50.5621 56.5695 51.0443C56.3312 51.5265 55.9875 51.8996 55.5383 52.1637C55.0931 52.4277 54.5776 52.5598 53.9917 52.5598C53.0973 52.5598 52.3805 52.2689 51.8416 51.6872C51.3065 51.1016 51.0389 50.3229 51.0389 49.3508V49.2819ZM52.4626 49.4024C52.4626 50.0416 52.5973 50.5429 52.8668 50.9065C53.1363 51.2662 53.5113 51.4461 53.9917 51.4461C54.4721 51.4461 54.8451 51.2624 55.1107 50.895C55.3802 50.5276 55.5149 49.9899 55.5149 49.2819C55.5149 48.6543 55.3763 48.1567 55.0989 47.7893C54.8256 47.4219 54.4526 47.2383 53.9799 47.2383C53.5152 47.2383 53.1461 47.4201 52.8727 47.7836C52.5993 48.1433 52.4626 48.683 52.4626 49.4024ZM43.6043 44.0867V52.445H46.0591C46.8285 52.445 47.51 52.2823 48.1037 51.9569C48.7014 51.6317 49.1602 51.1686 49.4806 50.5678C49.8047 49.9669 49.9668 49.2704 49.9668 48.4782V48.0591C49.9668 47.2784 49.8066 46.5857 49.4864 45.981C49.1661 45.3764 48.713 44.9095 48.1272 44.5803C47.5452 44.2512 46.8773 44.0867 46.1235 44.0867H43.6043ZM45.0865 51.2853V45.2578H46.1235C46.8891 45.2578 47.473 45.497 47.8752 45.9753C48.2775 46.4537 48.4787 47.1464 48.4787 48.0534V48.5184C48.4709 49.4101 48.258 50.0951 47.8401 50.5735C47.4261 51.0481 46.8304 51.2853 46.0532 51.2853H45.0865ZM36.9723 50.8893L38.4487 46.2337H39.6087L37.0601 53.4037C36.6657 54.437 36.0388 54.9536 35.1795 54.9536L34.9744 54.9364L34.5703 54.8617V54.0007L34.8632 54.0236C35.2303 54.0236 35.5155 53.9509 35.7185 53.8055C35.9256 53.6601 36.0955 53.394 36.2282 53.0075L36.4684 52.3761L34.207 46.2337H35.3905L36.9723 50.8893Z" fill="#627282"/>
</g>
<defs>
<clipPath id="clip0_1844_909">
<rect width="97" height="55" fill="white"/>
</clipPath>
</defs>
</svg>
