<svg width="101" height="80" viewBox="0 0 101 80" fill="none" xmlns="http://www.w3.org/2000/svg">
<path fill-rule="evenodd" clip-rule="evenodd" d="M20.0667 38.1521C18.043 36.9033 15.4328 36.4731 13.0584 36.4731C9.55325 36.4731 6.19052 37.8223 3.70301 40.6679C1.23434 43.5135 0 47.4709 0 52.5402C0 57.911 1.22491 62.1434 3.67474 64.4801C6.14341 66.7981 9.03224 67.957 12.6626 67.957C15.6559 67.957 17.7017 67.2015 19.1339 66.4477C20.5661 65.6939 21.8279 64.6882 22.8817 63.3119C22.8817 67.699 22.5655 70.0353 21.8494 71.6559C20.6434 74.4073 18.0597 75.8041 14.1589 75.8041C11.6902 75.8041 9.8811 75.2388 8.73156 74.1081C7.99662 73.3732 7.50665 72.3273 7.26167 70.9704H2.08877C2.35259 74.0798 3.59635 76.3601 5.82004 77.8111C8.04373 79.281 10.7613 80 14.0215 80C19.8822 80 23.8922 77.9619 26.0028 73.8537C27.1335 71.63 27.6989 68.596 27.6989 64.7516V37.1613H22.8817V40.879C21.9785 39.699 21.207 38.8558 20.0667 38.1521ZM20.6886 43.6077C22.2339 45.4168 23.0065 48.1964 23.0065 51.9466C23.0065 54.4341 22.5919 56.9893 21.7628 58.855C20.274 62.1528 16.9122 63.8017 13.2563 63.8017C10.9195 63.8017 8.68746 62.916 7.29294 61.1446C5.91727 59.3543 5.22944 56.3751 5.22944 52.9642C5.22944 50.0621 5.54682 47.7034 6.27532 45.9256C7.69891 42.4516 10.4107 40.9676 13.9912 40.9676C16.3845 40.9676 19.1433 41.7986 20.6886 43.6077Z" fill="#00C3A5"/>
<path fill-rule="evenodd" clip-rule="evenodd" d="M47.3117 37.1613H42.4945V79.3119H47.3117V63.3119C48.172 64.6882 49.7027 65.8935 50.6072 66.4589C52.1525 67.4576 54.0653 67.957 56.3455 67.957C59.2476 67.957 61.7916 67.0619 63.9776 65.2716C67.4262 62.4449 69.1612 58.0051 69.1612 51.4094C69.1612 46.5286 67.9539 42.7785 65.5606 40.1591C63.1673 37.5208 60.2558 36.4731 56.826 36.4731C54.5081 36.4731 52.4917 37.0385 50.7768 38.1692C49.5708 38.923 48.258 40 47.3117 41.4624V37.1613ZM61.5749 60.551C60.0108 62.5297 58.0415 63.5191 55.6671 63.5191C52.1619 63.5191 49.7498 61.9549 48.4307 58.8267C47.7334 57.1872 47.3848 55.4705 47.3848 53.1337C47.3848 50.2316 47.7334 48.1098 48.4307 46.2254C49.731 42.7014 52.1431 40.9394 55.6671 40.9394C59.1722 40.9394 61.5843 42.3356 62.9035 45.6712C63.6007 47.4049 63.96 49.4778 63.96 51.89C63.96 55.8474 63.1579 58.5534 61.5749 60.551Z" fill="#00C3A5"/>
<path fill-rule="evenodd" clip-rule="evenodd" d="M86.3654 36.4731C82.1504 36.4731 78.6667 37.9648 76.1167 40.8637C73.6204 43.7017 72.2579 47.5098 72.2579 52.2149H72.2589L72.2579 52.2153C72.2579 56.9204 73.6204 60.7285 76.1167 63.5664C78.6667 66.4653 82.1504 67.957 86.3654 67.957C90.5805 67.957 94.0642 66.4653 96.6141 63.5664C99.1105 60.7285 100.473 56.9204 100.473 52.2153L100.472 52.2149H100.473C100.473 47.5098 99.1105 43.7017 96.6141 40.8637C94.0642 37.9648 90.5805 36.4731 86.3654 36.4731ZM77.473 52.2153L77.472 52.2149H77.473C77.473 49.1353 78.2281 46.4574 79.5845 44.2393C80.9941 41.934 83.2687 40.7814 86.3654 40.7814C89.4622 40.7814 91.7368 41.934 93.1464 44.2393C94.5028 46.4574 95.2578 49.1353 95.2578 52.2149H95.2586L95.2578 52.2153C95.2578 55.2949 94.5028 57.9728 93.1464 60.1909C91.7368 62.4961 89.4622 63.6488 86.3654 63.6488C83.2687 63.6488 80.9941 62.4961 79.5845 60.1909C78.2281 57.9728 77.473 55.2949 77.473 52.2153Z" fill="#00C3A5"/>
<path d="M32.5161 37.1613H37.6774V67.2688H32.5161V37.1613Z" fill="#00C3A5"/>
<path d="M37.834 28.9033C37.834 30.4279 36.6059 31.656 35.0813 31.656C33.5567 31.656 32.3286 30.4279 32.3286 28.9033C32.3286 27.3788 33.5673 26.1506 35.0813 26.1506C36.5953 26.1506 37.834 27.3788 37.834 28.9033Z" fill="#00C3A5"/>
<path opacity="0.4" d="M37.71 2.75269C37.71 4.27725 36.4713 5.50538 34.9573 5.50538C33.4327 5.50538 32.2046 4.26667 32.2046 2.75269C32.2046 1.22812 33.4327 0 34.9573 0C36.4713 0 37.71 1.23871 37.71 2.75269Z" fill="#00C3A5"/>
<path opacity="0.7" d="M50.9243 15.7952C50.9243 17.3197 49.6856 18.5479 48.1716 18.5479C46.6471 18.5479 45.4189 17.3091 45.4189 15.7952C45.4189 14.2812 46.6577 13.0425 48.1716 13.0425C49.6856 13.0425 50.9243 14.2706 50.9243 15.7952Z" fill="#00C3A5"/>
<path opacity="0.15" d="M24.7739 15.7849C24.7739 17.3095 23.5376 18.5376 22.016 18.5376C20.4943 18.5376 19.2686 17.3095 19.2686 15.7849C19.2686 14.2604 20.5049 13.0323 22.016 13.0323C23.5376 13.0217 24.7739 14.2604 24.7739 15.7849Z" fill="#00C3A5"/>
<path opacity="0.1" d="M26.5688 22.3596C26.5688 23.8842 25.3301 25.1123 23.8162 25.1123C22.2916 25.1123 21.0635 23.8736 21.0635 22.3596C21.0635 20.8456 22.3022 19.6069 23.8162 19.6069C25.3301 19.6069 26.5688 20.8351 26.5688 22.3596Z" fill="#00C3A5"/>
<path opacity="0.2" d="M26.5483 9.31372C26.5483 10.8383 25.3096 12.0664 23.7956 12.0664C22.2711 12.0664 21.043 10.8383 21.043 9.31372C21.043 7.78916 22.2817 6.56104 23.7956 6.56104C25.3202 6.56104 26.5483 7.78916 26.5483 9.31372Z" fill="#00C3A5"/>
<path opacity="0.8" d="M49.1094 22.3076C49.1094 23.8322 47.8812 25.0603 46.3567 25.0603C44.8321 25.0603 43.604 23.8216 43.604 22.3076C43.604 20.7936 44.8321 19.5549 46.3567 19.5549C47.8812 19.5549 49.1094 20.7936 49.1094 22.3076Z" fill="#00C3A5"/>
<path opacity="0.6" d="M49.1196 9.26725C49.1196 10.7889 47.8809 12.0147 46.3669 12.0147C44.8424 12.0147 43.6143 10.7889 43.6143 9.26725C43.6143 7.74561 44.853 6.50928 46.3669 6.50928C47.8809 6.50928 49.1196 7.74561 49.1196 9.26725Z" fill="#00C3A5"/>
<path opacity="0.05" d="M31.3008 27.0913C31.3008 28.6159 30.0621 29.844 28.5481 29.844C27.0235 29.844 25.7954 28.6053 25.7954 27.0913C25.7954 25.5774 27.0341 24.3387 28.5481 24.3387C30.0621 24.3281 31.3008 25.5668 31.3008 27.0913Z" fill="#00C3A5"/>
<path opacity="0.3" d="M31.3115 4.54077C31.3115 6.06534 30.0752 7.29346 28.5536 7.29346C27.0319 7.29346 25.8062 6.05475 25.8062 4.54077C25.8062 3.01621 27.0425 1.78809 28.5536 1.78809C30.0858 1.78809 31.3115 3.01621 31.3115 4.54077Z" fill="#00C3A5"/>
<path opacity="0.9" d="M44.3467 27.0913C44.3467 28.6159 43.1186 29.844 41.594 29.844C40.0694 29.844 38.8413 28.6053 38.8413 27.0913C38.8413 25.5667 40.0694 24.3386 41.594 24.3386C43.1186 24.3386 44.3467 25.5667 44.3467 27.0913Z" fill="#00C3A5"/>
<path opacity="0.5" d="M44.3672 4.53028C44.3672 6.05484 43.1391 7.28296 41.6145 7.28296C40.0899 7.28296 38.8618 6.04425 38.8618 4.53028C38.8618 3.00571 40.0899 1.77759 41.6145 1.77759C43.1391 1.77759 44.3672 3.00571 44.3672 4.53028Z" fill="#00C3A5"/>
</svg>
